# xmcd CD database file
# Copyright (C) 1997 Ti Kan
# 
# Track frame offsets:
#     183
#     8958
#     20283
#     36033
#     46533
#     67158
#     78183
#     90708
#     107433
#     120258
#     128770
#     137283
#     149208
#     163158
#     185883
#     198483
#     216783
#     237783
# 
# Disc length: 3585 seconds
# 
# Revision: 1
# Processed by: cddbd v1.4b41PL1 Copyright (c) Steve Scherf et al.
# Submitted via: DiscPlay 4.0.3
# 
DISCID=f10dff12
DTITLE=Cuby and Blizzards - The Singles Collection [CD1]
DYEAR=1900
DGENRE=
TTITLE0=Stumble and fall (1965)
TTITLE1=I'm so restless (1965)
TTITLE2=L.S.D. (Got a million dollars - 1966)
TTITLE3=Your body, not your soul (1966)
TTITLE4=Back home (A man - 1966)
TTITLE5=Sweet Mary (1966)
TTITLE6=Richard Cory (1966)
TTITLE7=You don't know (1966)
TTITLE8=Just for fun (1966)
TTITLE9=Things I remember (1966)
TTITLE10=Another day, another road (1967)
TTITLE11=Feeling like a suitcase (1967)
TTITLE12=Distant smile (1967)
TTITLE13=Don't know which way to go (1967)
TTITLE14=The sunshine of your shadow (1968)
TTITLE15=Crying tears (1968)
TTITLE16=Another land (1967)
TTITLE17=Somebody will know someday (1967)
EXTD=
EXTT0=
EXTT1=
EXTT2=
EXTT3=
EXTT4=
EXTT5=
EXTT6=
EXTT7=
EXTT8=
EXTT9=
EXTT10=
EXTT11=
EXTT12=
EXTT13=
EXTT14=
EXTT15=
EXTT16=
EXTT17=
PLAYORDER=
